<svg xmlns="http://www.w3.org/2000/svg" xmlns:xlink="http://www.w3.org/1999/xlink" width="843" height="782" viewBox="0 0 843 782">
  <defs>
    <style>
      .cls-1 {
        clip-path: url(#clip-Web_1920_1);
        opacity: 0.1;
      }

      .cls-2, .cls-3 {
        fill: #e0e0e0;
      }

      .cls-3 {
        stroke: #707070;
      }
    </style>
    <clipPath id="clip-Web_1920_1">
      <rect width="843" height="782"/>
    </clipPath>
  </defs>
  <g id="Web_1920_1" data-name="Web 1920 – 1" class="cls-1">
    <g id="png_1_" data-name="png (1)" transform="translate(1.5 293.901)">
      <circle id="Elipse_1" data-name="Elipse 1" class="cls-2" cx="46" cy="46" r="46" transform="translate(369.5 -252.901)"/>
      <path id="Caminho_6" data-name="Caminho 6" class="cls-3" d="M324.329-157.762h-125.2l-71.012,37.511L95.9-70.466,86.338-.8,91.07,77.284l48.9,72.565L222,172.6H324.329l120.1-6.192,57.579-29.972L544.6,69.4l5.23-54.934L531.979-95.451,477.555-140.41l-60.733-17.352Z" transform="translate(99.715 188.16)"/>
      <path id="Caminho_1" data-name="Caminho 1" d="M393.522-263.357c-21.792,9.534-39.5,35.413-39.5,57.75,0,25.878,16.889,51.212,40.043,59.929l11.713,4.631V-96.1l-55.026,1.362c-44.947,1.09-59.112,2.452-76,7.083-58.022,16.072-103.514,49.85-134.84,99.972-12.8,20.7-28.33,59.384-28.33,70.825,0,5.448-2.452,7.627-12.8,12.258-32.689,13.62-50.395,29.42-62.925,56.388-6.81,14.437-7.355,17.979-7.355,52.3,0,40.316,1.362,46.036,17.161,71.1C60.1,298.069,94.15,318.5,118.121,318.5c8.445,0,10.079,1.634,22.337,21.248,31.6,50.667,83.356,86.9,143.83,100.79,29.692,6.81,235.9,6.81,266.684,0,27.24-6.265,61.291-20.975,82.539-36.23,21.52-15.527,51.757-47.943,63.743-68.646,9.262-16.344,9.807-16.617,23.427-17.979,26.423-2.724,58.839-24.516,73.277-49.305,15.255-26.423,19.341-71.1,9.534-103.241C793.14,131.9,772.164,109.02,741.11,97.579c-15.527-5.448-16.344-6.265-17.979-17.161C717.139,44.46,690.988-1.031,658.3-32.085c-49.305-46.854-97.793-63.47-184.69-63.47H427.573v-43.857l11.713-4.9c26.968-11.713,40.588-31.871,40.316-60.474,0-28.33-12.8-47.126-39.226-58.295C428.39-267.988,404.691-268.26,393.522-263.357Zm44.947,23.972c14.982,10.351,19.613,18.8,19.613,35.14-.545,43.04-59.384,56.933-76.818,17.979-6.81-14.437-6.81-23.972-.272-36.775C392.16-244.289,419.4-252.188,438.469-239.385ZM552.879-66.953c74.911,20.7,127.213,72.732,147.643,147.1,6.538,23.7,9.807,113.593,5.448,155.543C697.8,315.5,649.31,380.88,577.4,409.21c-31.871,12.531-42.223,13.348-170.253,12.258l-119.858-.817-23.972-9.262c-62.381-23.7-106.238-70.28-127.485-135.113-5.72-17.434-6.265-25.334-7.355-90.711-1.09-77.908.817-96.976,14.165-130.754C163.885.875,217.821-48.157,273.664-64.229c28.33-8.445,41.405-8.989,152.547-8.445C521.825-72.129,537.352-71.312,552.879-66.953ZM106.135,181.48c0,63.2.545,67.284,10.079,109.507,1.362,5.72.817,5.993-4.9,4.358C86.795,288.262,68,273.008,56.83,251.215,51.11,239.5,50.292,234.6,50.292,205.451c0-28.875.817-34.323,6.538-46.036,3.541-7.083,10.624-17.161,15.8-22.337,8.172-8.172,26.151-19.613,31.6-20.158C105.318,116.92,106.135,146.067,106.135,181.48ZM743.29,122.1c13.076,6.81,29.147,24.789,36.5,40.861,7.9,17.161,8.444,60.2.817,81.994-7.083,20.158-27.785,41.133-47.4,47.4-8.172,2.724-14.982,4.358-15.527,4.086-.272-.545,1.634-10.351,4.9-21.52,4.631-17.434,5.72-31.054,6.81-89.349.545-37.592,1.634-68.646,2.179-68.646C732.393,116.92,737.569,119.371,743.29,122.1Z" transform="translate(0 0)"/>
      <path id="Caminho_2" data-name="Caminho 2" d="M209.7-160.932c-60.474,10.624-107.327,53.391-122.31,110.869C82.211-30.178,81.394,54,86.025,76.6,96.1,124.82,135.33,168.133,183.818,185.566c17.161,5.993,20.43,6.265,132.116,7.083,129.665.817,138.654,0,171.887-18.524,23.7-13.075,49.033-39.5,60.746-63.2,13.893-28.058,17.161-50.94,15.8-105.693-.817-43.857-1.634-49.305-8.717-68.1-17.161-46.309-50.667-78.18-99.428-94.252-13.348-4.358-27.24-4.9-123.944-5.448C272.35-162.839,217.324-162.022,209.7-160.932Zm242.713,27.513C493-120.889,521.328-93.1,535.493-51.7c5.176,15.255,5.993,23.427,5.993,65.1.272,65.377-5.721,85.263-34.868,116.589-18.251,19.886-44.674,34.6-69.463,38.409-28.6,4.631-209.752,3.814-232.906-1.09-39.226-8.445-74.094-38.409-90.166-77.363-6.81-16.617-7.627-21.52-8.717-64.56-.817-28.875,0-52.029,1.907-61.291,9.534-45.492,43.857-84.173,86.9-98.066,13.893-4.358,26.7-4.9,127.485-4.9C427.893-139.14,434.7-138.867,452.409-133.419Z" transform="translate(93.932 179.786)"/>
      <path id="Caminho_3" data-name="Caminho 3" d="M133.255-113.316C124.538-106.234,118-94.52,118-84.986c0,14.71,12.531,29.965,27.785,34.323,13.893,3.541,32.416-4.086,38.681-16.344,8.989-17.161,3.269-40.043-11.986-47.943C160.768-120.944,141.972-120.126,133.255-113.316Z" transform="translate(154.302 255.025)"/>
      <path id="Caminho_4" data-name="Caminho 4" d="M211.169-112.059a35.619,35.619,0,0,0,12.258,61.291c13.348,4.358,32.144-2.452,39.5-14.71,6.265-10.079,6.81-26.151,1.09-37.047C255.3-119.687,226.424-124.59,211.169-112.059Z" transform="translate(292.949 254.857)"/>
      <path id="Caminho_5" data-name="Caminho 5" d="M151.957-77.28c-5.176,5.176-5.176,5.72,0,15.255,16.889,31.054,60.474,41.95,94.8,23.154,21.792-11.713,33.506-34.6,21.248-41.405-7.083-3.541-11.986-1.362-17.706,8.172C241.033-56.3,212.7-48.4,192.273-55.76c-4.086-1.634-12.8-8.445-18.8-14.982C167.211-77.552,160.946-83,159.584-83,157.95-83,154.681-80.548,151.957-77.28Z" transform="translate(206.153 317.054)"/>
    </g>
  </g>
</svg>
