<svg xmlns="http://www.w3.org/2000/svg" xmlns:xlink="http://www.w3.org/1999/xlink" width="974" height="1059" viewBox="0 0 974 1059">
  <defs>
    <style>
      .cls-1 {
        clip-path: url(#clip-Web_1920_1);
      }

      .cls-2 {
        fill: #fff;
      }

      .cls-3 {
        fill: #6ee5f8;
      }

      .cls-4 {
        fill: #aaf7fc;
      }

      .cls-5 {
        fill: #fff100;
      }

      .cls-6 {
        fill: #77f1fc;
      }

      .cls-7 {
        fill: #0040ab;
      }
    </style>
    <clipPath id="clip-Web_1920_1">
      <rect width="974" height="1059"/>
    </clipPath>
  </defs>
  <g id="Web_1920_1" data-name="Web 1920 – 1" class="cls-1">
    <g id="meli_2" transform="translate(-675.659 2097.891)">
      <path id="Caminho_14" data-name="Caminho 14" class="cls-2" d="M547.541,235.411H459.262l-89.68,9.809-110.7,102.292L237.863,447V610.948l63.057,106.5L424.231,777.7H668.049l93.884-37.834,79.872-91.082,25.223-137.323-11.21-126.113-37.834-64.458-106.5-75.668Z" transform="translate(675.659 -2118.891)"/>
      <path id="Caminho_13" data-name="Caminho 13" class="cls-3" d="M624.6,618.595l60.982,12.935,86.853,109.028,114.572,24.023h221.752l77.613-24.023,75.765-62.83,18.479-46.2,68.373-12.935,16.631,59.134-31.415,121.963L1262.137,923.5l-75.765,57.286-96.092,46.2-99.788,12.936-83.157-12.936-125.659-46.2-96.092-94.244L624.6,740.558Z" transform="translate(234.659 -2108.891)"/>
      <path id="Caminho_9" data-name="Caminho 9" class="cls-2" d="M996.34-1152.146l44.3-98.6,80.026-38.584h210.069l88.6,47.159,34.3,90.03-87.172,52.875-142.9,37.155-131.472-22.865Z"/>
      <path id="Caminho_10" data-name="Caminho 10" class="cls-2" d="M900.594-1683.751l-62.878,35.726-10,67.165,10,61.449,75.739,50.016Z"/>
      <path id="Caminho_11" data-name="Caminho 11" class="cls-2" d="M1545.093-1683.751l-18.578,208.64,65.736-21.436,30.01-80.026-12.861-77.168Z"/>
      <path id="Caminho_12" data-name="Caminho 12" class="cls-4" d="M1222.063-1769.167h-85.677l-80.026,16.822-65.736,75.739-8.574,70.023v88.6l42.871,55.733,80.027,45.729h240.079l68.594-37.155,51.446-77.168v-75.739l-14.29-90.03-97.175-72.555Z"/>
      <circle id="Elipse_1" data-name="Elipse 1" class="cls-5" cx="117.5" cy="117.5" r="117.5" transform="translate(693.659 -1974.891)"/>
      <circle id="Elipse_2" data-name="Elipse 2" class="cls-6" cx="52" cy="52" r="52" transform="translate(1170.659 -2065.891)"/>
      <path id="Caminho_1" data-name="Caminho 1" class="cls-7" d="M1256.85-2078.481c-8.184,1.314-10.633,1.852-15.83,3.644-22.461,7.766-37.455,22.879-43.548,43.906-8.064,27.9,2.031,57.825,24.731,73.356,4.9,3.285,10.155,5.854,18.817,8.96l7.766,2.808.179,23.954.119,23.895-9.677.359c-5.376.179-23.6.657-40.5.956-57.705,1.135-70.429,2.21-88.469,7.407-54.479,15.651-100.715,47.55-131.778,90.918a218.427,218.427,0,0,0-21.505,36.857c-6.631,14.755-14.4,37.753-17.2,50.656-1.732,8.064-3.166,9.319-16.487,14.277-21.625,8.124-36.2,18.7-49.044,35.543-10.275,13.56-17.5,31.123-21.206,51.672-1.434,7.945-1.613,10.036-1.613,25.089-.06,21.744,1.434,32.915,6.272,47.431,2.987,9.02,7.467,17.682,15.83,30.525l6.631,10.155-1.434,14.934c-3.4,35.9-1.075,83.631,5.854,118.278,23.656,118.577,107.764,222.1,221.263,272.4,10.514,4.659,23.476,9.558,36.738,13.919,35.782,11.708,62.006,16.009,106.928,17.383,51.313,1.613,88.469-3.644,133.212-18.757,95.219-32.2,173.713-99.64,218.874-188.169a378.559,378.559,0,0,0,40.322-137.991,387.436,387.436,0,0,0,.657-69c-1.493-17.264-1.493-22.819-.06-25.985a68.867,68.867,0,0,1,5.675-8.363c10.036-13.082,16.308-29.33,19.534-50.6,1.135-7.168,1.374-11.171,1.374-24.97a204.5,204.5,0,0,0-.717-22.1c-4.958-36.738-20.37-61.767-49.939-80.943a101.865,101.865,0,0,0-24.074-11.708c-11.051-3.644-11.23-3.883-14.456-17.264a237.22,237.22,0,0,0-63.978-113.5c-17.742-17.742-35.483-30.824-56.51-41.636-31-15.949-55.5-22.461-97.609-25.925-4.421-.359-26.7-.777-49.521-.956l-41.4-.3.239-21.625c.239-18.16.418-21.923,1.254-23.775,1.016-2.389,1.493-2.688,9.677-5.854a73.334,73.334,0,0,0,32.078-24.193c8.064-10.753,10.633-20.191,10.633-39.127,0-22.64-4.062-33.631-16.965-45.818a79.6,79.6,0,0,0-36.5-19.295C1266.527-2078.183,1259.418-2078.9,1256.85-2078.481Zm15.531,21.744c7.825,2.21,13.321,5.555,19.713,11.947,9.618,9.618,13.441,18.757,13.441,32.258s-3.823,22.64-13.441,32.258-18.757,13.441-32.258,13.441-22.64-3.823-32.258-13.441c-6.451-6.452-9.737-11.888-12.067-20.012-1.912-6.81-1.912-17.682,0-24.492a47.9,47.9,0,0,1,28.136-30.824A49.569,49.569,0,0,1,1272.381-2056.737Zm91.994,183.988c24.552.956,29.808,1.732,45.161,6.631,38.112,12.246,67.084,30.226,94.025,58.3,27.479,28.733,45.041,60.393,54.061,97.669,4.779,19.773,5.317,30.645,4.9,101.253-.3,55.375-.6,64.276-2.867,79.927-2.688,19-7.945,34.109-20.31,58.243a213.655,213.655,0,0,1-136.856,109.556c-20.968,5.376-27.6,5.735-120.548,6.153-69.891.3-122.579-.3-138.708-1.613-24.373-2.031-57.944-13.919-83.093-29.45-39.426-24.432-71.146-62.185-88.111-104.957-4.361-10.932-11.35-31.959-12.067-36.439-1.434-8.542-2.389-131.3-1.195-151.312,1.613-25.687,6.631-45.28,18.4-71.385,9.5-21.206,24.492-42.413,42.831-60.752,28.136-28.2,60.991-47.192,98.027-56.75,12.545-3.226,27.957-5.078,49.521-5.914C1179.312-1874.064,1350.1-1873.347,1364.375-1872.75ZM933.318-1674.664c1.135,2.987,1.553,15.89,1.553,51.612.06,59.8,1.075,87.394,3.883,103.642a123.591,123.591,0,0,0,5.436,20.729c3.106,9.319,3.226,11.41.657,11.708-3.943.478-19.534-6.093-29.988-12.545-8.781-5.5-19.235-14.994-24.492-22.282-7.407-10.334-10.812-19.235-13.261-34.946-.9-5.794-1.075-10.573-1.075-30.764.06-22.76.12-24.133,1.374-28.673,2.927-10.753,15.651-32.676,22.64-39.187,9.259-8.542,27.479-20.251,31.6-20.251A1.815,1.815,0,0,1,933.318-1674.664Zm663.312,2.33c15.651,8,25.926,16.905,35.244,30.7,6.332,9.319,9.976,16.965,12.186,25.448,1.135,4.361,1.254,6.87,1.493,29.45.358,32.974-.06,35.842-7.288,50.6-9.379,19-26.881,35.961-45.22,43.667-5.018,2.15-14.337,5.018-16.129,5.018-1.971,0-1.434-4,2.927-22.4,5.5-23.417,6.093-31.182,7.348-103.941.777-41.457,1.673-61.827,2.808-61.827C1590.118-1675.62,1593.165-1674.126,1596.63-1672.334Zm24.193,228.79c.06,30.047-3.405,61.588-9.5,86.916-13.321,55.316-40.74,107.7-79.33,151.611-6.571,7.467-34.05,36.559-34.766,36.738-.239.06-1.195-2.867-2.15-6.452-3.883-14.815-6.75-24.313-9.558-31.6-18.16-46.535-54.958-78.792-104-91.217-17.264-4.361-26.881-4.719-121.384-4.719-95.937,0-104.359.358-122.519,5.078-49.7,12.963-87.872,48.506-104.837,97.549-3.286,9.5-4.66,14.994-5.317,21.326-.657,5.854-1.553,8.662-2.688,8.662-2.808,0-25.03-22.222-41.815-41.815-30.525-35.543-54.539-81.062-69.294-131.121-3.644-12.246-6.631-25.03-7.706-32.556-3.286-22.76-6.213-69.473-5.555-88.888.418-14.337.9-14.7,12.246-9.5,8.781,4.062,20.071,7.407,32.676,9.737,6.213,1.135,11.828,2.21,12.365,2.389.6.179,2.151,2.27,3.524,4.6,12.007,20.908,17.981,29.689,28.315,41.935a296.947,296.947,0,0,0,25.985,26.045,245.141,245.141,0,0,0,50.477,33.034c17.8,8.722,31.72,13.56,56.272,19.713l15.651,3.943h245.158l17.084-4.421c18.041-4.719,28.375-8,39.187-12.485,42.472-17.5,79.39-46.654,105.136-82.914,2.21-3.106,7.467-11.469,11.768-18.638,4.241-7.109,8.064-12.963,8.423-12.963a189.318,189.318,0,0,0,24.671-3.345c8.124-1.971,12.306-3.465,22.1-7.885l7.706-3.524.836,7.825C1620.464-1465.647,1620.823-1455.372,1620.823-1443.544Zm-273.174,165.171c19.235.717,24.313,1.493,36.379,5.5,22.341,7.407,45.34,23.656,60.393,42.592,15.352,19.354,24.193,39.665,27.718,63.679,1.673,11.111,1.135,14.7-2.628,18.458-5.615,5.615-31.123,21.206-50.776,31-50.238,25.029-100.954,35.9-167.56,35.9-17.025,0-24.253-.538-39.127-2.748a380.35,380.35,0,0,1-112.6-34.886,302.48,302.48,0,0,1-41.278-24.074l-9.618-6.631.239-4.241c.657-12.246,1.553-20.848,2.628-25.985,9.14-41.875,44.743-80.166,87.454-93.965,10.514-3.4,18.16-4.659,31.959-5.2C1187.735-1279.628,1326.741-1279.21,1347.649-1278.374Z" transform="translate(-37.548)"/>
      <path id="Caminho_2" data-name="Caminho 2" class="cls-7" d="M1302.807-1578.447c-16.308.418-43.369,1.493-51.075,2.031a107.553,107.553,0,0,0-24.91,4.54c-47.55,14.277-86.976,51.254-104.18,97.729-5.615,15.233-7.646,31-8.96,70.489-.777,22.162-.12,47.55,1.613,60.214,3.823,28.972,14.157,54.3,30.884,75.805,5.794,7.407,19.175,21.027,27.6,28.076,15.233,12.6,26.642,18.459,56.63,28.972l11.23,3.943h250.474l13.142-4.839c33.034-12.186,47.61-21.326,68.756-43.01,13.441-13.8,20.071-23.118,28.136-39.546,4.361-8.96,10.215-24.074,11.888-30.585,2.091-8.3,2.27-12.545,2.509-60.931.359-61.05.12-64.635-5.2-81.659-15.531-49.282-55.674-89.007-105.2-104.061-20.131-6.093-35.543-6.929-128.971-7.168C1340.561-1578.566,1307.108-1578.506,1302.807-1578.447Zm126.641,24.731c45.34.956,60.453,1.911,69.115,4.54,40.023,11.888,71.385,41.218,87.036,81.48,8.124,20.788,9.379,32.616,8.841,82.436-.418,35.005-1.016,42.831-4.361,56.451-2.867,11.529-10.514,28.434-17.861,39.426a139.511,139.511,0,0,1-73.953,54.957c-8.841,2.808-15.293,3.763-29.51,4.48-15.472.777-173.355.717-193.426,0-31.421-1.195-42.114-3.226-59.2-11.35-15.472-7.348-26.762-15.173-38.231-26.583a124.946,124.946,0,0,1-19.355-23.715c-7.407-11.23-13.859-25.507-16.786-36.917-5.137-19.952-5.615-95.7-.777-122.459.538-2.748,1.732-7.587,2.748-10.753,10.932-34.169,36.738-63.8,69.354-79.748,8.721-4.3,20.31-8.3,26.4-9.2C1258.9-1553.536,1360.214-1555.149,1429.448-1553.716Z" transform="translate(-142.943 -201.353)"/>
      <path id="Caminho_3" data-name="Caminho 3" class="cls-7" d="M1312.2-1372.059a37.316,37.316,0,0,0-25.985,20.191c-5.555,11.23-5.5,22.461.06,33.871a38.63,38.63,0,0,0,33.691,20.908A38.63,38.63,0,0,0,1353.654-1318c7.467-15.233,4.779-31.84-7.049-43.667A37.528,37.528,0,0,0,1312.2-1372.059Z" transform="translate(-210.874 -284.146)"/>
      <path id="Caminho_4" data-name="Caminho 4" class="cls-7" d="M1689.926-1371.993c-14.157,3.166-26.045,15.173-28.972,29.271-5.555,26.523,18.339,50.417,44.8,44.8,8.244-1.732,18.7-7.945,22.939-13.62,5.556-7.407,7.407-13.62,7.407-24.313,0-6.452-.239-8.124-1.553-12.306a36.166,36.166,0,0,0-8.542-14.1C1717.644-1370.141,1701.336-1374.562,1689.926-1371.993Z" transform="translate(-363.098 -284.212)"/>
      <path id="Caminho_5" data-name="Caminho 5" class="cls-7" d="M1434.662-1195.356c-2.031.6-7.109,5.794-8.064,8.3-.717,1.971-.179,4.779,1.912,9.319,12.007,26.523,49.939,41.995,82.675,33.631,18.1-4.6,36.5-17.861,42.95-30.943,2.628-5.376,2.987-11.589.9-15.591-1.792-3.345-4.719-5.376-7.587-5.376-4.241.06-7.109,2.031-16.188,11.29-5.5,5.615-10.334,9.916-13.321,11.887-11.29,7.467-27.538,9.2-42.293,4.54-10.334-3.226-17.025-7.766-23.058-15.591C1443.324-1195.834,1441.113-1197.208,1434.662-1195.356Z" transform="translate(-268.943 -355.355)"/>
      <path id="Caminho_6" data-name="Caminho 6" class="cls-7" d="M817.148-1836.189c-8.6,1.374-18.638,7.467-23,14.038-4.182,6.213-6.213,15.711-7.109,32.556-.179,4.122-.538,7.945-.657,8.483-.3,1.016,1.732,1.075,36.14,1.075h36.5v-11.051c0-15.292-1.493-22.282-6.511-29.988-5.974-9.319-15.293-14.456-27.6-15.292A40.878,40.878,0,0,0,817.148-1836.189Z" transform="translate(-11.281 -97.492)"/>
      <path id="Caminho_7" data-name="Caminho 7" class="cls-7" d="M786.339-1731.088c.179,1.075.538,6.153.9,11.23,1.255,17.98,3.763,25.985,10.275,32.5a36.08,36.08,0,0,0,41.4,7.288,29.765,29.765,0,0,0,11.947-9.617c6.033-8.064,8.064-16.188,8.064-32.258V-1733H786.1Z" transform="translate(-11.176 -139.152)"/>
      <path id="Caminho_8" data-name="Caminho 8" class="cls-7" d="M760.229-1706.509c-3.763,3.763-1.673,18.16,4.3,29.032,7.168,13.2,18.279,22.7,31.362,26.881,7.885,2.509,9.14,3.7,9.677,9.14.538,4.6-.06,10.036-1.135,11.589-.6.836-2.031,1.075-7.348,1.374-6.929.358-8.483.956-8.483,3.226,0,2.091,1.673,3.883,4.361,4.6,1.673.538,7.885.777,18.936.777s17.264-.239,18.936-.777c2.688-.717,4.361-2.509,4.361-4.6,0-2.27-1.553-2.867-8.483-3.226-5.317-.3-6.75-.538-7.348-1.374-1.075-1.553-1.673-6.989-1.135-11.589.538-5.2,2.031-6.75,8.064-8.6,11.529-3.405,23.476-12.186,30.346-22.222,5.137-7.527,8.423-17.682,8.542-26.1.06-6.631-1.016-8.9-4.182-8.96-3.644,0-7.885,5.436-7.885,10.155,0,5.615-3.763,14.516-8.96,20.967C835.8-1665.71,825.7-1661.05,811.3-1661.11c-11.888-.06-18.638-2.748-27.061-10.932-7.766-7.407-12.664-15.83-13.321-22.76-.538-5.794-1.792-9.259-4.182-11.35C764.231-1708.3,762.14-1708.421,760.229-1706.509Z" transform="translate(0 -149.275)"/>
    </g>
  </g>
</svg>
