<svg xmlns="http://www.w3.org/2000/svg" width="106.845" height="164.794" viewBox="0 0 106.845 164.794">
  <path id="Caminho_6" data-name="Caminho 6" d="M817.148-1836.189c-8.6,1.374-18.638,7.467-23,14.038-4.182,6.213-6.213,15.711-7.109,32.556-.179,4.122-.538,7.945-.657,8.483-.3,1.016,1.732,1.075,36.14,1.075h36.5v-11.051c0-15.292-1.493-22.282-6.511-29.988-5.974-9.319-15.293-14.456-27.6-15.292A40.878,40.878,0,0,0,817.148-1836.189Z" transform="translate(-769.624 1836.469)" fill="#f04"/>
  <path id="Caminho_7" data-name="Caminho 7" d="M786.339-1731.088c.179,1.075.538,6.153.9,11.23,1.255,17.98,3.763,25.985,10.275,32.5a36.08,36.08,0,0,0,41.4,7.288,29.765,29.765,0,0,0,11.947-9.617c6.033-8.064,8.064-16.188,8.064-32.258V-1733H786.1Z" transform="translate(-769.519 1794.808)" fill="#f04"/>
  <path id="Caminho_8" data-name="Caminho 8" d="M760.229-1706.509c-3.763,3.763-1.673,18.16,4.3,29.032,7.168,13.2,18.279,22.7,31.362,26.881,7.885,2.509,9.14,3.7,9.677,9.14.538,4.6-.06,10.036-1.135,11.589-.6.836-2.031,1.075-7.348,1.374-6.929.358-8.483.956-8.483,3.226,0,2.091,1.673,3.883,4.361,4.6,1.673.538,7.885.777,18.936.777s17.264-.239,18.936-.777c2.688-.717,4.361-2.509,4.361-4.6,0-2.27-1.553-2.867-8.483-3.226-5.317-.3-6.75-.538-7.348-1.374-1.075-1.553-1.673-6.989-1.135-11.589.538-5.2,2.031-6.75,8.064-8.6,11.529-3.405,23.476-12.186,30.346-22.222,5.137-7.527,8.423-17.682,8.542-26.1.06-6.631-1.016-8.9-4.182-8.96-3.644,0-7.885,5.436-7.885,10.155,0,5.615-3.763,14.516-8.96,20.967C835.8-1665.71,825.7-1661.05,811.3-1661.11c-11.888-.06-18.638-2.748-27.061-10.932-7.766-7.407-12.664-15.83-13.321-22.76-.538-5.794-1.792-9.259-4.182-11.35C764.231-1708.3,762.14-1708.421,760.229-1706.509Z" transform="translate(-758.343 1784.686)" fill="#f04"/>
</svg>
