<?xml version="1.0" standalone="no"?>
<!DOCTYPE svg PUBLIC "-//W3C//DTD SVG 20010904//EN"
 "http://www.w3.org/TR/2001/REC-SVG-20010904/DTD/svg10.dtd">
<svg version="1.0" xmlns="http://www.w3.org/2000/svg"
 width="879.000000pt" height="232.000000pt" viewBox="0 0 879.000000 232.000000"
 preserveAspectRatio="xMidYMid meet">

<g transform="translate(0.000000,232.000000) scale(0.100000,-0.100000)"
fill="#000000" stroke="none">
<path d="M2370 1215 c0 -664 4 -1074 9 -1070 13 8 14 2132 1 2140 -7 4 -10
-369 -10 -1070z"/>
<path d="M2587 2153 c-12 -11 -8 -1883 3 -1883 7 0 10 322 10 945 0 520 -1
945 -3 945 -2 0 -7 -3 -10 -7z"/>
<path d="M6265 1215 c0 -495 1 -696 2 -447 2 250 2 655 0 900 -1 246 -2 42 -2
-453z"/>
<path d="M1240 1210 c0 -464 3 -841 6 -837 7 7 7 1668 -1 1675 -3 3 -5 -374
-5 -838z"/>
<path d="M6125 1215 c0 -462 1 -650 2 -417 2 233 2 611 0 840 -1 229 -2 39 -2
-423z"/>
<path d="M2165 1215 c0 -445 1 -629 2 -408 2 221 2 585 0 810 -1 224 -2 44 -2
-402z"/>
<path d="M2650 1215 c0 -503 3 -765 10 -765 7 0 10 262 10 765 0 503 -3 765
-10 765 -7 0 -10 -262 -10 -765z"/>
<path d="M1105 1215 c0 -407 1 -572 2 -367 2 206 2 539 0 740 -1 202 -2 34 -2
-373z"/>
<path d="M1520 1215 c0 -457 3 -695 10 -695 7 0 10 238 10 695 0 457 -3 695
-10 695 -7 0 -10 -238 -10 -695z"/>
<path d="M2510 1215 c0 -457 3 -695 10 -695 7 0 10 238 10 695 0 457 -3 695
-10 695 -7 0 -10 -238 -10 -695z"/>
<path d="M6055 1210 c0 -388 1 -546 2 -353 2 194 2 512 0 706 -1 193 -2 35 -2
-353z"/>
<path d="M2305 1215 c0 -379 1 -533 2 -342 2 192 2 502 0 690 -1 188 -2 32 -2
-348z"/>
<path d="M6195 1215 c0 -379 1 -533 2 -342 2 192 2 502 0 690 -1 188 -2 32 -2
-348z"/>
<path d="M4425 1215 c0 -369 1 -518 2 -332 2 186 2 488 0 670 -1 183 -2 31 -2
-338z"/>
<path d="M5135 1210 c0 -371 1 -523 2 -338 2 186 2 490 0 675 -1 186 -2 34 -2
-337z"/>
<path d="M3015 1215 c0 -357 1 -502 2 -322 2 181 2 473 0 650 -1 177 -2 30 -2
-328z"/>
<path d="M1170 1209 c0 -424 3 -638 10 -634 6 4 10 228 10 641 0 416 -3 634
-10 634 -7 0 -10 -220 -10 -641z"/>
<path d="M1450 1216 c0 -413 4 -637 10 -641 7 -4 10 210 10 634 0 421 -3 641
-10 641 -7 0 -10 -218 -10 -634z"/>
<path d="M2230 1215 c0 -415 3 -624 10 -620 6 4 10 222 10 620 0 398 -4 616
-10 620 -7 4 -10 -205 -10 -620z"/>
<path d="M5065 1215 c0 -346 1 -487 2 -312 2 175 2 459 0 630 -1 172 -2 29 -2
-318z"/>
<path d="M1660 1215 c0 -403 3 -615 10 -615 7 0 10 212 10 615 0 403 -3 615
-10 615 -7 0 -10 -212 -10 -615z"/>
<path d="M5977 1823 c-9 -15 -4 -1213 4 -1219 5 -3 9 263 9 610 0 339 -2 616
-4 616 -3 0 -7 -3 -9 -7z"/>
<path d="M3360 1215 c0 -324 2 -586 5 -583 6 6 7 1159 0 1166 -3 3 -5 -259 -5
-583z"/>
<path d="M6335 1210 c0 -305 1 -430 2 -277 2 152 2 402 0 555 -1 152 -2 27 -2
-278z"/>
<path d="M7810 1215 c0 -357 3 -545 10 -545 7 0 10 188 10 545 0 357 -3 545
-10 545 -7 0 -10 -188 -10 -545z"/>
<path d="M1730 1216 c0 -346 4 -537 10 -541 7 -4 10 177 10 534 0 354 -3 541
-10 541 -7 0 -10 -185 -10 -534z"/>
<path d="M2440 1215 c0 -350 3 -535 10 -535 7 0 10 185 10 535 0 350 -3 535
-10 535 -7 0 -10 -185 -10 -535z"/>
<path d="M4350 1209 c0 -351 3 -528 10 -524 14 9 14 1055 0 1055 -7 0 -10
-184 -10 -531z"/>
<path d="M5837 1723 c-12 -11 -8 -1023 3 -1023 7 0 10 178 10 515 0 283 -1
515 -3 515 -2 0 -7 -3 -10 -7z"/>
<path d="M6960 1210 c0 -340 3 -520 10 -520 7 0 10 180 10 520 0 340 -3 520
-10 520 -7 0 -10 -180 -10 -520z"/>
<path d="M7045 1215 c0 -286 1 -402 2 -257 2 145 2 379 0 520 -1 141 -2 23 -2
-263z"/>
<path d="M1035 1210 c0 -283 1 -399 2 -258 2 142 2 374 0 515 -1 142 -2 26 -2
-257z"/>
<path d="M6890 1216 c0 -326 4 -507 10 -511 7 -4 10 167 10 504 0 334 -3 511
-10 511 -7 0 -10 -175 -10 -504z"/>
<path d="M7740 1215 c0 -330 3 -505 10 -505 7 0 10 175 10 505 0 330 -3 505
-10 505 -7 0 -10 -175 -10 -505z"/>
<path d="M8175 1215 c0 -280 1 -397 2 -258 2 138 2 368 0 510 -1 142 -2 29 -2
-252z"/>
<path d="M1380 1215 c0 -328 3 -494 10 -490 6 4 10 178 10 490 0 312 -4 486
-10 490 -7 4 -10 -162 -10 -490z"/>
<path d="M5410 1216 c0 -324 3 -496 10 -496 7 0 10 170 10 489 0 316 -4 492
-10 496 -7 4 -10 -162 -10 -489z"/>
<path d="M1590 1215 c0 -317 3 -485 10 -485 7 0 10 168 10 485 0 317 -3 485
-10 485 -7 0 -10 -168 -10 -485z"/>
<path d="M2095 1215 c0 -269 1 -378 2 -242 2 137 2 357 0 490 -1 133 -2 22 -2
-248z"/>
<path d="M2945 1210 c0 -272 1 -384 2 -247 2 136 2 358 0 495 -1 136 -2 24 -2
-248z"/>
<path d="M5767 1693 c-12 -11 -8 -963 3 -963 7 0 10 168 10 485 0 267 -1 485
-3 485 -2 0 -7 -3 -10 -7z"/>
<path d="M6820 1215 c0 -310 3 -475 10 -475 7 0 10 165 10 475 0 310 -3 475
-10 475 -7 0 -10 -165 -10 -475z"/>
<path d="M5690 1215 c0 -303 3 -465 10 -465 7 0 10 162 10 465 0 303 -3 465
-10 465 -7 0 -10 -162 -10 -465z"/>
<path d="M4916 1661 c-10 -16 -5 -901 5 -901 5 0 9 176 9 455 0 250 -2 455 -4
455 -3 0 -7 -4 -10 -9z"/>
<path d="M5550 1216 c0 -297 3 -456 10 -456 7 0 10 156 10 449 0 289 -4 452
-10 456 -7 4 -10 -148 -10 -449z"/>
<path d="M5620 1215 c0 -297 3 -455 10 -455 7 0 10 158 10 455 0 297 -3 455
-10 455 -7 0 -10 -158 -10 -455z"/>
<path d="M670 1216 c0 -286 4 -447 10 -451 7 -4 10 147 10 444 0 294 -3 451
-10 451 -7 0 -10 -155 -10 -444z"/>
<path d="M3155 1215 c0 -242 1 -340 2 -217 2 123 2 321 0 440 -1 119 -2 19 -2
-223z"/>
<path d="M3430 1215 c0 -294 3 -434 10 -430 14 8 13 852 0 860 -6 4 -10 -154
-10 -430z"/>
<path d="M5275 1215 c0 -242 1 -340 2 -217 2 123 2 321 0 440 -1 119 -2 19 -2
-223z"/>
<path d="M7185 1215 c0 -242 1 -340 2 -217 2 123 2 321 0 440 -1 119 -2 19 -2
-223z"/>
<path d="M3220 1215 c0 -236 2 -426 5 -423 7 7 6 840 0 847 -3 2 -5 -188 -5
-424z"/>
<path d="M6750 1215 c0 -277 3 -425 10 -425 7 0 10 148 10 425 0 277 -3 425
-10 425 -7 0 -10 -148 -10 -425z"/>
<path d="M2025 1210 c0 -234 1 -329 2 -213 2 117 2 309 0 425 -1 117 -2 22 -2
-212z"/>
<path d="M5900 1215 c0 -257 4 -395 10 -395 6 0 10 138 10 395 0 257 -4 395
-10 395 -6 0 -10 -138 -10 -395z"/>
<path d="M4560 1216 c0 -251 4 -386 10 -386 6 0 10 133 10 379 0 243 -4 382
-10 386 -7 4 -10 -125 -10 -379z"/>
<path d="M4995 1210 c0 -217 1 -306 2 -197 2 108 2 286 0 395 -1 108 -2 19 -2
-198z"/>
<path d="M1955 1215 c0 -209 1 -296 2 -193 2 103 2 274 0 380 -1 106 -2 22 -2
-187z"/>
<path d="M2720 1215 c0 -243 4 -375 10 -375 6 0 10 132 10 375 0 243 -4 375
-10 375 -6 0 -10 -132 -10 -375z"/>
<path d="M3085 1215 c0 -209 1 -296 2 -193 2 103 2 274 0 380 -1 106 -2 22 -2
-187z"/>
<path d="M3500 1215 c0 -243 4 -375 10 -375 6 0 10 132 10 375 0 243 -4 375
-10 375 -6 0 -10 -132 -10 -375z"/>
<path d="M5340 1215 c0 -206 3 -375 8 -375 4 0 7 169 7 375 0 206 -3 375 -7
375 -5 0 -8 -169 -8 -375z"/>
<path d="M7255 1215 c0 -209 1 -296 2 -193 2 103 2 274 0 380 -1 106 -2 22 -2
-187z"/>
<path d="M8105 1215 c0 -209 1 -296 2 -193 2 103 2 274 0 380 -1 106 -2 22 -2
-187z"/>
<path d="M3290 1215 c0 -237 4 -365 10 -365 6 0 10 128 10 365 0 237 -4 365
-10 365 -6 0 -10 -128 -10 -365z"/>
<path d="M8385 1215 c0 -203 1 -285 2 -182 2 104 2 270 0 370 -1 100 -2 16 -2
-188z"/>
<path d="M6400 1215 c0 -235 3 -354 10 -350 6 4 10 132 10 350 0 218 -4 346
-10 350 -7 4 -10 -115 -10 -350z"/>
<path d="M1808 1219 c-2 -187 0 -343 5 -346 4 -2 7 151 7 341 0 190 -2 346 -5
346 -2 0 -6 -153 -7 -341z"/>
<path d="M2790 1215 c0 -223 4 -345 10 -345 6 0 10 122 10 345 0 223 -4 345
-10 345 -6 0 -10 -122 -10 -345z"/>
<path d="M2875 1215 c0 -192 1 -270 2 -172 2 98 2 256 0 350 -1 95 -3 15 -2
-178z"/>
<path d="M4280 1215 c0 -190 3 -345 8 -345 4 0 7 155 7 345 0 190 -3 345 -7
345 -5 0 -8 -155 -8 -345z"/>
<path d="M7115 1215 c0 -192 1 -270 2 -172 2 98 2 256 0 350 -1 95 -3 15 -2
-178z"/>
<path d="M1314 1215 c0 -187 2 -262 3 -167 2 95 2 248 0 340 -1 92 -3 14 -3
-173z"/>
<path d="M7530 1209 c0 -189 4 -338 9 -335 11 7 12 676 0 676 -5 0 -9 -144 -9
-341z"/>
<path d="M8244 1215 c0 -187 2 -262 3 -167 2 95 2 248 0 340 -1 92 -3 14 -3
-173z"/>
<path d="M600 1215 c0 -210 4 -325 10 -325 6 0 10 115 10 325 0 210 -4 325
-10 325 -6 0 -10 -115 -10 -325z"/>
<path d="M4490 1215 c0 -215 3 -324 10 -320 6 4 10 122 10 320 0 198 -4 316
-10 320 -7 4 -10 -105 -10 -320z"/>
<path d="M4630 1215 c0 -210 4 -325 10 -325 6 0 10 115 10 325 0 210 -4 325
-10 325 -6 0 -10 -115 -10 -325z"/>
<path d="M5484 1210 c0 -184 2 -260 3 -167 2 92 2 242 0 335 -1 92 -3 16 -3
-168z"/>
<path d="M964 1210 c0 -179 2 -252 3 -162 2 89 2 235 0 325 -1 89 -3 16 -3
-163z"/>
<path d="M4770 1215 c0 -203 4 -315 10 -315 6 0 10 112 10 315 0 203 -4 315
-10 315 -6 0 -10 -112 -10 -315z"/>
<path d="M5204 1215 c0 -176 2 -247 3 -157 2 90 2 234 0 320 -1 86 -3 13 -3
-163z"/>
<path d="M7394 1215 c0 -176 2 -247 3 -157 2 90 2 234 0 320 -1 86 -3 13 -3
-163z"/>
<path d="M7460 1215 c0 -203 4 -315 10 -315 6 0 10 112 10 315 0 203 -4 315
-10 315 -6 0 -10 -112 -10 -315z"/>
<path d="M7670 1215 c0 -203 4 -315 10 -315 6 0 10 112 10 315 0 203 -4 315
-10 315 -6 0 -10 -112 -10 -315z"/>
<path d="M747 1513 c-12 -11 -8 -603 3 -603 6 0 10 108 10 305 0 168 -1 305
-3 305 -2 0 -7 -3 -10 -7z"/>
<path d="M4144 1215 c0 -170 2 -242 3 -158 2 83 2 223 0 310 -1 87 -3 19 -3
-152z"/>
<path d="M6610 1209 c0 -204 3 -308 10 -304 6 4 10 118 10 311 0 196 -4 304
-10 304 -6 0 -10 -110 -10 -311z"/>
<path d="M8314 1215 c0 -165 2 -234 3 -153 2 81 2 216 0 300 -1 84 -3 18 -3
-147z"/>
<path d="M8450 1209 c0 -197 3 -298 10 -294 6 4 10 115 10 301 0 189 -4 294
-10 294 -6 0 -10 -107 -10 -301z"/>
<path d="M824 1210 c0 -162 2 -229 3 -147 2 81 2 213 0 295 -1 81 -3 14 -3
-148z"/>
<path d="M3570 1215 c0 -183 4 -285 10 -285 6 0 10 102 10 285 0 183 -4 285
-10 285 -6 0 -10 -102 -10 -285z"/>
<path d="M4847 1493 c-12 -11 -8 -563 3 -563 6 0 10 102 10 285 0 157 -1 285
-3 285 -2 0 -7 -3 -10 -7z"/>
<path d="M6470 1216 c0 -158 4 -285 8 -282 11 6 10 552 0 562 -5 4 -8 -122 -8
-280z"/>
<path d="M7887 1493 c-11 -11 -8 -551 3 -558 7 -4 10 92 10 279 0 157 -1 286
-3 286 -2 0 -7 -3 -10 -7z"/>
<path d="M4214 1215 c0 -154 2 -216 3 -137 2 79 2 205 0 280 -1 75 -3 11 -3
-143z"/>
<path d="M7600 1215 c0 -182 3 -274 10 -270 6 4 10 105 10 270 0 165 -4 266
-10 270 -7 4 -10 -88 -10 -270z"/>
<path d="M8020 1216 c0 -173 4 -277 10 -281 7 -4 10 90 10 274 0 181 -4 281
-10 281 -6 0 -10 -98 -10 -274z"/>
<path d="M1884 1215 c0 -143 2 -200 3 -127 2 73 2 190 0 260 -1 70 -3 10 -3
-133z"/>
<path d="M4074 1215 c0 -143 2 -200 3 -127 2 73 2 190 0 260 -1 70 -3 10 -3
-133z"/>
<path d="M6680 1209 c0 -171 3 -258 10 -254 6 4 10 102 10 261 0 163 -4 254
-10 254 -6 0 -10 -94 -10 -261z"/>
<path d="M3647 1453 c-11 -11 -8 -483 3 -483 6 0 10 88 10 245 0 135 -1 245
-3 245 -2 0 -7 -3 -10 -7z"/>
<path d="M894 1215 c0 -132 2 -185 3 -117 2 68 2 176 0 240 -1 64 -3 9 -3
-123z"/>
<path d="M7324 1215 c0 -132 2 -185 3 -117 2 68 2 176 0 240 -1 64 -3 9 -3
-123z"/>
<path d="M4004 1215 c0 -126 2 -177 3 -112 2 65 2 168 0 230 -1 62 -3 9 -3
-118z"/>
<path d="M8520 1209 c0 -151 3 -228 10 -224 6 4 10 92 10 231 0 143 -4 224
-10 224 -6 0 -10 -84 -10 -231z"/>
<path d="M3710 1215 c0 -137 4 -215 10 -215 6 0 10 78 10 215 0 137 -4 215
-10 215 -6 0 -10 -78 -10 -215z"/>
<path d="M4700 1215 c0 -137 4 -215 10 -215 6 0 10 78 10 215 0 137 -4 215
-10 215 -6 0 -10 -78 -10 -215z"/>
<path d="M3787 1413 c-11 -11 -8 -403 3 -403 6 0 10 75 10 205 0 113 -1 205
-3 205 -2 0 -7 -3 -10 -7z"/>
<path d="M6544 1215 c0 -110 2 -156 3 -103 2 53 2 143 0 200 -1 57 -3 13 -3
-97z"/>
<path d="M460 1216 c0 -99 4 -167 10 -171 7 -4 10 53 10 164 0 107 -4 171 -10
171 -6 0 -10 -61 -10 -164z"/>
<path d="M530 1216 c0 -93 4 -157 10 -161 7 -4 10 50 10 154 0 101 -4 161 -10
161 -6 0 -10 -58 -10 -154z"/>
<path d="M8594 1210 c0 -91 2 -128 3 -82 2 45 2 119 0 165 -1 45 -3 8 -3 -83z"/>
<path d="M390 1215 c0 -77 4 -125 10 -125 6 0 10 48 10 125 0 77 -4 125 -10
125 -6 0 -10 -48 -10 -125z"/>
<path d="M3857 1333 c-11 -10 -8 -231 3 -238 6 -4 10 38 10 119 0 69 -1 126
-3 126 -2 0 -7 -3 -10 -7z"/>
<path d="M3934 1215 c0 -71 1 -99 3 -62 2 37 2 96 0 130 -2 34 -3 4 -3 -68z"/>
<path d="M7957 1333 c-11 -11 -8 -243 3 -243 6 0 10 48 10 125 0 69 -1 125 -3
125 -2 0 -7 -3 -10 -7z"/>
<path d="M320 1216 c0 -51 4 -86 10 -86 6 0 10 33 10 79 0 44 -4 83 -10 86 -6
4 -10 -25 -10 -79z"/>
<path d="M8660 1216 c0 -50 4 -86 10 -86 12 0 10 159 -2 166 -4 3 -8 -33 -8
-80z"/>
<path d="M251 1218 c-1 -27 3 -48 7 -48 4 0 6 17 4 38 -5 58 -10 62 -11 10z"/>
</g>
</svg>
