<svg xmlns="http://www.w3.org/2000/svg" viewBox="0 0 24 24"><defs></defs><g fill="none" fill-rule="evenodd"><path fill="#000" fill-opacity=".8" fill-rule="nonzero" d="M21 3.75c1.2426 0 2.25 1.0074 2.25 2.25v11.993c0 1.1909-.9252 2.1656-2.096 2.2448l-.1645.0052L.75 20.1488V3.75H21zm0 1.5H2.25v13.4057l18.7465.0873c.4177 0 .7535-.3358.7535-.75l-.001-2.252-5.2655-.015c-1.996-.0058-3.6234-1.5734-3.7263-3.544l-.0052-.1983c0-1.9956 1.5655-3.6254 3.5354-3.7285l.1983-.0052 5.2633-.001L21.75 6a.75.75 0 00-.75-.75zm.749 4.499l-5.2633.001c-1.2336 0-2.2337 1-2.2337 2.2337 0 1.1821.915 2.1511 2.076 2.2363l.1599.006 5.2611.015V9.749zm-2.998 1.4977v1.5h-2.999v-1.5h2.999z"></path></g></svg>
