<svg xmlns="http://www.w3.org/2000/svg" viewBox="0 0 24 24" width="24px"><defs></defs><g fill="none" fill-rule="evenodd"><path fill="#000" fill-opacity=".8" d="M16.504.75c1.2426 0 2.25 1.0074 2.25 2.25v18c0 1.2426-1.0074 2.25-2.25 2.25l-8.996-.0007c-1.2423 0-2.2494-1.0067-2.25-2.2493V3C5.2586 1.7574 6.2657.7507 7.508.7507L16.504.75zm.749 19.501H6.757l.001.7487a.75.75 0 00.75.7496l8.996.0007a.75.75 0 00.75-.75l-.001-.749zm0-15.001H6.757v13.501h10.496V5.25zm-.749-3l-8.996.0007a.75.75 0 00-.75.7495l-.001.7498h10.496l.001-.75a.75.75 0 00-.75-.75z"></path></g></svg>
