<svg xmlns="http://www.w3.org/2000/svg" viewBox="0 0 24 24"><defs></defs><path fill="#000" fill-opacity=".8" fill-rule="nonzero" d="M20 1.25c1.4625 0 2.6584 1.1417 2.745 2.5825L22.75 4v16c0 1.4625-1.1417 2.6584-2.5825 2.745L20 22.75H4c-1.4625 0-2.6584-1.1417-2.745-2.5825L1.25 20V4c0-1.4625 1.1417-2.6584 2.5825-2.745L4 1.25h16zm0 1.5H4c-.6472 0-1.1795.4919-1.2435 1.1222L2.75 4v16c0 .6472.4919 1.1795 1.1222 1.2435L4 21.25h16c.6472 0 1.1795-.4919 1.2435-1.1222L21.25 20V4c0-.6472-.4919-1.1795-1.1222-1.2435L20 2.75zm-6.6059 7.5098c1.1075 1.1075 1.147 2.8904.1187 4.0462l-.1187.1257-1.9445 1.9446c-1.1485 1.1485-3.0235 1.1485-4.172 0-1.1074-1.1075-1.147-2.8905-.1186-4.0462l.1186-.1258.7779-.7778 1.0606 1.0607-.7778.7778c-.5627.5627-.5627 1.488 0 2.0506.5296.5296 1.3803.5608 1.9477.0935l.103-.0935 1.9445-1.9445c.5296-.5296.5607-1.3803.0934-1.9477l-.0934-.103 1.0606-1.0606zm3.0602-3.0602c1.1075 1.1075 1.147 2.8905.1186 4.0462l-.1186.1257-.7778.7779-1.0607-1.0607.7778-.7778c.5627-.5627.5627-1.488 0-2.0506-.5296-.5296-1.3803-.5608-1.9477-.0935l-.1029.0935-1.9445 1.9445c-.5296.5296-.5608 1.3803-.0935 1.9477l.0935.103-1.0607 1.0606c-1.1075-1.1075-1.147-2.8904-.1186-4.0462l.1186-.1257 1.9446-1.9446c1.1485-1.1485 3.0234-1.1485 4.1719 0z"></path></svg>
