<svg xmlns="http://www.w3.org/2000/svg" viewBox="0 0 24 24"><defs></defs><g fill="none" fill-rule="evenodd"><path fill="#000" fill-opacity=".8" fill-rule="nonzero" d="M12 1.9c5.578 0 10.1 4.522 10.1 10.1 0 5.578-4.522 10.1-10.1 10.1-5.578 0-10.1-4.522-10.1-10.1C1.9 6.422 6.422 1.9 12 1.9zm0 1.5c-4.7496 0-8.6 3.8504-8.6 8.6 0 4.7496 3.8504 8.6 8.6 8.6 4.7496 0 8.6-3.8504 8.6-8.6 0-4.7496-3.8504-8.6-8.6-8.6zm.1 11.836c.608 0 1.12.512 1.12 1.104 0 .608-.512 1.136-1.12 1.136-.608 0-1.12-.528-1.12-1.136 0-.592.512-1.104 1.12-1.104zm.096-8.768c2.016 0 3.248 1.072 3.248 2.512 0 2.368-2.848 2.56-2.848 3.984 0 .1113.0333.3032.079.417.0477.1181.1128.1833.2017.251l.0713.052-1.424.48a1.7664 1.7664 0 01-.4775-.783c-.0556-.1878-.0825-.3868-.0825-.593 0-1.952 2.576-2.144 2.576-3.504 0-.624-.496-1.152-1.52-1.152-.9211 0-1.594.3725-2.1081.9766l-.1159.1434-1.088-1.2c.816-1.008 2.048-1.584 3.488-1.584z"></path></g></svg>
