<?xml version="1.0" encoding="iso-8859-1"?>
<!-- Generator: Adobe Illustrator 19.0.0, SVG Export Plug-In . SVG Version: 6.00 Build 0)  -->
<svg version="1.1" id="Capa_1" xmlns="http://www.w3.org/2000/svg" xmlns:xlink="http://www.w3.org/1999/xlink" x="0px" y="0px"
	 viewBox="0 0 512 512" style="enable-background:new 0 0 512 512;" xml:space="preserve">
<g>
	<g>
		<path d="M53.333,0c-5.888,0-10.667,4.779-10.667,10.667v490.667c0,5.888,4.779,10.667,10.667,10.667S64,507.221,64,501.333V10.667
			C64,4.779,59.221,0,53.333,0z"/>
	</g>
</g>
<g>
	<g>
		<path d="M501.333,448H10.667C4.779,448,0,452.779,0,458.667s4.779,10.667,10.667,10.667h490.667
			c5.888,0,10.667-4.779,10.667-10.667S507.221,448,501.333,448z"/>
	</g>
</g>
<g>
	<g>
		<path d="M501.333,85.333H394.667c-4.309,0-8.213,2.603-9.856,6.592c-1.664,3.989-0.747,8.576,2.304,11.627l106.667,106.667
			c2.048,2.027,4.779,3.115,7.552,3.115c1.365,0,2.752-0.256,4.075-0.811c3.989-1.643,6.592-5.547,6.592-9.856V96
			C512,90.112,507.221,85.333,501.333,85.333z"/>
	</g>
</g>
<g>
	<g>
		<path d="M455.509,141.803c-4.16-4.16-10.923-4.16-15.083,0L330.645,251.584l-35.115-35.115c-4.16-4.16-10.923-4.16-15.083,0
			L109.781,387.136c-4.16,4.16-4.16,10.923,0,15.083c2.091,2.069,4.821,3.115,7.552,3.115c2.731,0,5.461-1.045,7.552-3.136
			L288,239.083l35.093,35.136c4.16,4.16,10.923,4.16,15.083,0l117.333-117.333C459.669,152.725,459.669,145.963,455.509,141.803z"/>
	</g>
</g>
<g>
</g>
<g>
</g>
<g>
</g>
<g>
</g>
<g>
</g>
<g>
</g>
<g>
</g>
<g>
</g>
<g>
</g>
<g>
</g>
<g>
</g>
<g>
</g>
<g>
</g>
<g>
</g>
<g>
</g>
</svg>
