<svg xmlns="http://www.w3.org/2000/svg" viewBox="0 0 24 24"><defs></defs><g fill="none" fill-rule="evenodd"><path fill="#fff" fill-opacity=".8" fill-rule="nonzero" d="M12 1.9c5.578 0 10.1 4.522 10.1 10.1 0 5.578-4.522 10.1-10.1 10.1-5.578 0-10.1-4.522-10.1-10.1C1.9 6.422 6.422 1.9 12 1.9zm4 14.85H8c-.9182 0-1.6712.7071-1.7442 1.6065l-.0026.0416C7.7763 19.7671 9.791 20.6 12 20.6c2.2086 0 4.2228-.8326 5.7458-2.201-.0487-.8689-.731-1.5674-1.592-1.6423L16 16.75zM12 3.4c-4.7496 0-8.6 3.8504-8.6 8.6 0 1.9062.6201 3.6675 1.6697 5.0932.495-1.0299 1.5172-1.7585 2.7168-1.8363L8 15.25h8c1.291 0 2.4062.7527 2.9306 1.8432C19.9799 15.6675 20.6 13.9062 20.6 12c0-4.7496-3.8504-8.6-8.6-8.6zm-.1 2.2467c2.2368 0 4.05 1.8132 4.05 4.05 0 2.2368-1.8132 4.05-4.05 4.05-2.2368 0-4.05-1.8132-4.05-4.05 0-2.2368 1.8132-4.05 4.05-4.05zm0 1.5c-1.4083 0-2.55 1.1417-2.55 2.55 0 1.4083 1.1417 2.55 2.55 2.55 1.4083 0 2.55-1.1417 2.55-2.55 0-1.4083-1.1417-2.55-2.55-2.55z"></path></g></svg>
