<svg height="29" width="29" xmlns="http://www.w3.org/2000/svg" viewBox="0 0 24 24">
  <path fill-opacity=".8" d="M18.7861.15v1.5H15.878v2.494l4.372.0001V7.669l2.5 3.988v10.4283H1.25V11.6569l2.5-3.9889V4.1441l10.628-.0001V1.65h-2.9074V.15h7.3155zM18.75 5.644H5.25v2.4565l-2.5 3.9865v8.498h18.5v-8.497l-2.5-3.9875V5.644zm-.749 10.506v1.5H5.953v-1.5h12.048zm-9-3.7647v1.5H6.953v-1.5h2.048zm4 0v1.5h-2.048v-1.5h2.048zm4 0v1.5h-2.048v-1.5h2.048zm-4-3.5v1.5h-2.048v-1.5h2.048zm-4 0v1.5H6.953v-1.5h2.048zm8 0v1.5h-2.048v-1.5h2.048z"></path>
</svg>
