<svg xmlns="http://www.w3.org/2000/svg" viewBox="0 0 24 24"><defs></defs><g fill="none" fill-rule="evenodd"><path fill="#000" fill-opacity=".8" fill-rule="nonzero" d="M16.5273 1.4136l4.3654 4.3653v16.7648H3.126V1.4136h13.4012zm-1.6352 1.499l-10.266.001v18.13h14.7666l-.0006-13.63h-4.4994l-.0006-4.501zm-2.9108 5.05c2.7907 0 5.053 2.2624 5.053 5.0531 0 2.7908-2.2623 5.0532-5.053 5.0532-2.7908 0-5.0532-2.2624-5.0532-5.0532 0-2.7907 2.2624-5.053 5.0531-5.053zm.8458 1.6013l-.0005 3.8833-3.4377 1.9985c.6483.6913 1.5699 1.1232 2.5923 1.1232 1.9624 0 3.5532-1.5908 3.5532-3.5532 0-1.6708-1.1533-3.0723-2.7073-3.4518zm-1.5006-.041C9.677 9.83 8.4281 11.277 8.4281 13.0156c0 .4003.0662.7852.1883 1.1442l2.7102-1.5756V9.5228zm5.0656-6.1233l.0006 2.514h2.5134l-2.514-2.514z"></path></g></svg>
